<svg xmlns="http://www.w3.org/2000/svg" viewBox="0 55.5 180 69" enable-background="new 0 55.5 180 69"><path fill="#fff" d="M78.5 70.3v2.5h4.1v1.4h-4.1V78h-1.8v-9.1h6v1.4h-4.2zm12.4 5.9H87l-.7 1.8h-1.9l3-9.1H90l3.1 9.1h-1.8l-.4-1.8zm-.4-1.2l-1.7-4.8-1.5 4.8h3.2zm10.6-.2h1.8v.3c0 1.2-.2 2.1-.7 2.5-.4.4-1.4.5-3.1.5-1.8 0-2.9-.3-3.3-.9s-.6-2.2-.6-4.8c0-1.5.3-2.5.8-3s1.8-.7 3.5-.7c1.3 0 2.2.2 2.6.6.4.4.6 1.1.6 2.3v.2h-1.8v-.2c0-.6-.1-.9-.3-1.1-.2-.2-.7-.2-1.5-.2-1 0-1.8.1-2 .4-.2.3-.3 1-.3 2.4 0 1.8.1 2.8.3 3.1s.8.5 1.9.5c.8 0 1.4-.1 1.7-.3.2-.2.4-.6.4-1.1-.1-.1 0-.5 0-.5zm5.9-4.5v2.4h4.2v1.2H107v2.6h4.5V78h-6.3v-9.1h6.2v1.4H107zm7.3 7.7v-9.1h4.4c1 0 1.8.2 2.2.5.4.3.6.9.6 1.9 0 1.1-.4 1.8-1.3 2 1 .2 1.5.9 1.5 2.2 0 .9-.2 1.5-.6 2-.4.4-1.1.5-2.1.5h-4.8zm1.8-5.3h2.1c.7 0 1.1-.1 1.3-.2.2-.1.3-.5.3-1 0-.7-.4-1.1-1.2-1.1h-2.5v2.3zm0 3.8h2.5c.6 0 .9-.1 1.1-.2.2-.2.3-.5.3-1s-.1-.9-.3-1c-.2-.1-.6-.2-1.4-.2h-2.2v2.4zm12.2-7.7c1.7 0 2.7.3 3.2.8s.7 1.8.7 3.7c0 2.1-.2 3.4-.7 3.9-.5.5-1.7.8-3.5.8-1.7 0-2.7-.3-3.2-.8s-.7-1.8-.7-3.5c0-2.2.2-3.5.7-4.1.5-.5 1.6-.8 3.5-.8zm-.1 1.4c-1.1 0-1.9.1-2.1.4-.2.3-.3 1.3-.3 3.1 0 1.3.1 2.1.3 2.4.2.3.9.4 2.1.4 1 0 1.8-.1 2-.4s.3-1.2.3-2.7c0-1.5-.1-2.4-.3-2.7-.3-.3-.9-.5-2-.5zm10.4-1.4c1.7 0 2.7.3 3.2.8s.7 1.8.7 3.7c0 2.1-.2 3.4-.7 3.9-.5.5-1.7.8-3.5.8-1.7 0-2.7-.3-3.2-.8s-.7-1.8-.7-3.5c0-2.2.2-3.5.7-4.1.5-.5 1.6-.8 3.5-.8zm-.1 1.4c-1.1 0-1.9.1-2.1.4s-.3 1.3-.3 3.1c0 1.3.1 2.1.3 2.4s.9.4 2.1.4c1 0 1.8-.1 2-.4.2-.3.3-1.2.3-2.7 0-1.5-.1-2.4-.3-2.7-.3-.3-.9-.5-2-.5zm8.5-1.3v3.7h.8l3-3.7h2.2l-3.7 4.4 4 4.6h-2.2l-3.3-3.9h-.8v4h-1.8v-9.1h1.8zM76.7 94.4v-9.1h4.4c1.2 0 2.2.3 2.7.8s.7 1.5.7 2.9c0 2.3-.2 3.7-.6 4.3-.4.6-1.3.9-2.8.9h-4.4v.2zm1.8-1.5H81c.8 0 1.3-.2 1.7-.6.2-.4.4-1.2.4-2.5s-.1-2.2-.3-2.6c-.2-.4-.7-.5-1.5-.5h-2.7v6.2zm10.4-6.2v2.4h4.2v1.2h-4.2v2.6h4.5v1.4h-6.3v-9.1h6.2v1.4c.1.1-4.4.1-4.4.1zm13.2-1.4h1.9l-2.9 9.1h-2.7l-2.9-9.1h1.8l1.8 5.2c.2.5.4 1.3.7 2.5l.2-.6c.2-.7.4-1.3.5-1.9l1.6-5.2zm5.6 1.4v2.4h4.2v1.2h-4.2v2.6h4.5v1.4H106v-9.1h6.2v1.4c0 .1-4.5.1-4.5.1zm9.1-1.4v7.5h4.2v1.5h-6v-9.1c0 .1 1.8.1 1.8.1zm10.4-.1c1.7 0 2.7.3 3.2.8s.7 1.8.7 3.7c0 2.1-.2 3.4-.7 3.9-.5.5-1.7.8-3.5.8-1.7 0-2.7-.3-3.2-.8s-.7-1.8-.7-3.5c0-2.2.2-3.5.7-4.1.5-.5 1.7-.8 3.5-.8zm-.1 1.4c-1.1 0-1.9.1-2.1.4-.2.3-.3 1.3-.3 3.1 0 1.3.1 2.1.3 2.4.2.3.9.4 2.1.4 1 0 1.8-.1 2-.4.2-.3.3-1.2.3-2.7 0-1.5-.1-2.4-.3-2.7-.2-.2-.8-.5-2-.5zm6.7 7.8v-9.1h4.1c1.2 0 2.1.2 2.5.6.4.4.6 1.2.6 2.5s-.2 2.1-.6 2.5c-.4.4-1.2.6-2.5.6h-2.5v2.9h-1.6zm1.7-4.5h2c.8 0 1.2-.1 1.4-.3.2-.2.3-.6.3-1.2 0-.7-.1-1.2-.3-1.4-.2-.2-.6-.3-1.3-.3h-2.2V90h.1zm9.7-3.2v2.4h4.2v1.2h-4.2v2.6h4.5v1.4h-6.3v-9.1h6.2v1.4h-4.4v.1zm7.3 7.7v-9.1h4.4c1.1 0 1.9.2 2.3.6s.6 1.1.6 2.1c0 .9-.1 1.5-.3 1.9-.2.3-.6.6-1.3.7v.1c1 .1 1.5.6 1.5 1.8v2H158v-1.7c0-.9-.4-1.4-1.3-1.4h-2.5v3.1c0-.1-1.7-.1-1.7-.1zm1.8-4.6h2.5c.6 0 1-.1 1.1-.3.2-.2.3-.6.3-1.2s-.1-1-.2-1.2c-.2-.2-.5-.3-1.1-.3h-2.6v3zm-71.9 17.7h1.8v.3c0 1.2-.2 2.1-.7 2.5-.4.4-1.4.5-3.1.5-1.8 0-2.9-.3-3.3-.9s-.6-2.2-.6-4.8c0-1.5.3-2.5.8-3s1.8-.7 3.5-.7c1.3 0 2.2.2 2.6.6.4.4.6 1.1.6 2.3v.2h-1.8v-.2c0-.6-.1-.9-.3-1.1-.2-.2-.7-.2-1.5-.2-1 0-1.8.1-2 .4-.2.3-.3 1-.3 2.4 0 1.8.1 2.8.3 3.1.2.3.8.5 1.9.5.8 0 1.4-.1 1.7-.3s.4-.6.4-1.1c-.1-.1 0-.5 0-.5zm8.1-5.9c1.7 0 2.7.3 3.2.8s.7 1.8.7 3.7c0 2.1-.2 3.4-.7 3.9-.5.5-1.7.8-3.5.8-1.7 0-2.7-.3-3.2-.8s-.7-1.8-.7-3.5c0-2.2.2-3.5.7-4.1.5-.6 1.6-.8 3.5-.8zm-.1 1.5c-1.1 0-1.9.1-2.1.4-.2.3-.3 1.3-.3 3.1 0 1.3.1 2.1.3 2.4s.9.4 2.1.4c1 0 1.8-.1 2-.4s.3-1.2.3-2.7c0-1.5-.1-2.4-.3-2.7-.3-.4-.9-.5-2-.5zm15-1.5v9.1h-2.9l-2.6-5c-.1-.2-.3-.7-.6-1.3l-.3-.6-.3-.6h-.1v7.7h-1.5v-9.1h2.9l2.4 4.6c.2.4.4.9.7 1.4l.3.7.3.7h.1v-7.6h1.7-.1zm4.9 1.5v2.5h4.1v1.4h-4.1v3.7h-1.8v-9.1h6v1.4c0 .1-4.2.1-4.2.1zm8.5 0v2.4h4.2v1.2h-4.2v2.6h4.5v1.4H117v-9.1h6.2v1.4c0 .1-4.4.1-4.4.1zm7.3 7.6v-9.1h4.4c1.1 0 1.9.2 2.3.6.4.4.6 1.1.6 2.1s-.1 1.5-.3 1.9c-.2.3-.6.6-1.3.7v.1c1 .1 1.5.6 1.5 1.8v2h-1.8v-1.7c0-.9-.4-1.4-1.3-1.4h-2.5v3.1c0-.1-1.6-.1-1.6-.1zm1.6-4.4h2.5c.6 0 1-.1 1.1-.3.2-.2.3-.6.3-1.2s-.1-1-.2-1.2c-.1-.2-.5-.3-1.1-.3h-2.6v3zm10.2-3.2v2.4h4.2v1.2h-4.2v2.6h4.5v1.4h-6.3v-9.1h6.2v1.4h-4.4v.1zm15.8-1.5v9.1h-2.9l-2.6-5c-.1-.2-.3-.7-.6-1.3l-.3-.6-.3-.6h-.1v7.7h-1.8v-9.1h2.9l2.4 4.6c.2.4.4.9.7 1.4l.3.7.3.7h.1v-7.6h1.9zm8.7 5.9h1.8v.3c0 1.2-.2 2.1-.7 2.5-.4.4-1.4.5-3.1.5-1.8 0-2.9-.3-3.3-.9-.4-.6-.6-2.2-.6-4.8 0-1.5.3-2.5.8-3s1.8-.7 3.5-.7c1.3 0 2.2.2 2.6.6.4.4.6 1.1.6 2.3v.2h-1.8v-.2c0-.6-.1-.9-.3-1.1-.2-.2-.7-.2-1.5-.2-1 0-1.8.1-2 .4-.2.3-.3 1-.3 2.4 0 1.8.1 2.8.3 3.1.2.3.8.5 1.9.5.8 0 1.4-.1 1.7-.3.2-.2.4-.6.4-1.1v-.5zm5.9-4.4v2.4h4.2v1.2h-4.2v2.6h4.5v1.4h-6.3v-9.1h6.2v1.4c.1.1-4.4.1-4.4.1zM25.4 97.2h-2.7V82.4H33v2.5h-7.5v3.6H32V91h-6.6v6.2zm10-4.1c0-2 1-3.1 2.1-3.6-.9-.5-1.8-1.7-1.8-3.2 0-3.1 2.5-4.2 5.4-4.2 2.9 0 5.4 1 5.4 4.2 0 1.5-.7 2.7-1.8 3.2 1.1.4 2.1 1.5 2.1 3.6 0 2.8-1.9 4.3-5.8 4.3-3.8.1-5.6-1.5-5.6-4.3zm8.9-.2c0-1.9-1.7-2.2-3.1-2.2s-3.1.3-3.1 2.2c0 1.4 1.2 2 3.1 2s3.1-.5 3.1-2zm-.4-6.4c0-1.4-1.1-1.9-2.7-1.9s-2.7.4-2.7 1.9c0 1.7 1.3 2 2.7 2 1.3 0 2.7-.3 2.7-2zM34.8 120.4c-8.4 0-16.5-1.4-23.8-4-1.2-.5-2.3-1.5-2.8-2.9-2.6-7.1-4-15.3-4-23.5s1.3-16.4 4-23.5c.5-1.3 1.5-2.5 2.8-2.9 7.2-2.7 15.4-4 23.8-4s16.5 1.4 23.8 4c1.2.5 2.3 1.5 2.8 2.9 2.6 7.1 4 15.3 4 23.5s-1.3 16.4-4 23.5c-.5 1.3-1.5 2.5-2.8 2.9-7.3 2.6-15.4 4-23.8 4zm0-58c-8 0-15.8 1.3-22.7 3.8-.4.2-.8.5-1 1.1C8.6 74.1 7.2 82 7.2 89.8c0 8 1.3 15.7 3.8 22.5.2.5.5.9 1 1.1 6.8 2.5 14.7 3.8 22.7 3.8s15.8-1.3 22.7-3.8c.4-.2.8-.5 1-1.1 2.5-6.8 3.8-14.7 3.8-22.5s-1.4-15.7-3.9-22.5c-.2-.5-.5-.9-1-1.1-6.7-2.5-14.5-3.8-22.5-3.8z"/></svg>