<svg xmlns="http://www.w3.org/2000/svg" viewBox="0 0 59.4 59.3" enable-background="new 0 0 59.4 59.3"><g fill="#0C223B"><path d="M20.6 36.8H18V22.5h10v2.4h-7.3v3.5H27v2.4h-6.4v6zM30.3 32.9c0-1.9 1-3 2-3.5-.9-.5-1.7-1.6-1.7-3.1 0-3 2.4-4.1 5.2-4.1 2.8 0 5.2 1 5.2 4.1 0 1.5-.7 2.6-1.7 3.1 1.1.4 2 1.5 2 3.5 0 2.7-1.8 4.2-5.6 4.2-3.6 0-5.4-1.5-5.4-4.2zm8.6-.2c0-1.8-1.6-2.1-3-2.1s-3 .3-3 2.1c0 1.4 1.2 1.9 3 1.9s3-.5 3-1.9zm-.4-6.2c0-1.4-1.1-1.8-2.6-1.8s-2.6.4-2.6 1.8c0 1.6 1.3 1.9 2.6 1.9s2.6-.3 2.6-1.9z"/></g><path fill="#0C223B" d="M29.7 59.3c-8.1 0-16-1.4-23-3.9-1.2-.5-2.2-1.5-2.7-2.8C1.5 45.7.1 37.8.1 29.8S1.4 13.9 4 7c.5-1.5 1.4-2.5 2.7-3 7-2.6 14.9-3.9 23-3.9s16 1.4 23 3.9c1.3.5 2.3 1.5 2.7 2.8 2.5 6.9 3.9 14.8 3.9 22.8S58 45.5 55.4 52.4c-.5 1.3-1.5 2.4-2.7 2.8-7 2.7-14.9 4.1-23 4.1zm0-56.2c-7.7 0-15.3 1.3-22 3.7-.4.2-.8.5-1 1.1C4.4 14.5 3.1 22 3.1 29.7c0 7.7 1.3 15.2 3.7 21.8.2.5.5.9 1 1.1 6.6 2.4 14.2 3.7 22 3.7 7.7 0 15.3-1.3 22-3.7.4-.2.8-.5 1-1.1 2.4-6.6 3.7-14.2 3.7-21.8s-1.3-15.2-3.7-21.8c-.2-.5-.5-.9-1-1.1C45 4.3 37.4 3.1 29.7 3.1z"/></svg>